<svg width="85" height="104" viewBox="0 0 85 104" fill="none" xmlns="http://www.w3.org/2000/svg">
<path d="M0 104V56.563H5.76271V80.0962H6.32039L27.6982 56.563H35.2269L15.2433 77.9653L35.2269 104H28.2559L11.7113 81.9492L5.76271 88.62V104H0Z" fill="white"/>
<path d="M49.9125 47.437C49.4013 45.8774 48.7274 44.4799 47.8909 43.2445C47.0699 41.9938 46.0862 40.9283 44.9399 40.0481C43.809 39.1679 42.5232 38.4962 41.0826 38.033C39.6419 37.5697 38.0618 37.3381 36.3423 37.3381C33.5229 37.3381 30.9591 38.0638 28.6509 39.5154C26.3427 40.9669 24.507 43.1056 23.1438 45.9314C21.7806 48.7572 21.099 52.2239 21.099 56.3314C21.099 60.4389 21.7883 63.9056 23.167 66.7314C24.5457 69.5572 26.4124 71.6959 28.7671 73.1474C31.1217 74.599 33.7707 75.3247 36.7141 75.3247C39.4405 75.3247 41.8416 74.7457 43.9174 73.5875C46.0087 72.414 47.6353 70.7617 48.7972 68.6307C49.9745 66.4843 50.5632 63.9596 50.5632 61.0566L52.3291 61.4272H38.0153V56.3314H56.14V61.4272C56.14 65.3339 55.3034 68.7311 53.6304 71.6187C51.9728 74.5063 49.6802 76.7454 46.7523 78.3359C43.84 79.9109 40.4939 80.6984 36.7141 80.6984C32.5005 80.6984 28.7981 79.7102 25.6069 77.7336C22.4312 75.7571 19.9526 72.9467 18.1711 69.3025C16.4051 65.6582 15.5221 61.3345 15.5221 56.3314C15.5221 52.5791 16.0256 49.205 17.0325 46.2094C18.0549 43.1982 19.4956 40.6349 21.3546 38.5194C23.2135 36.4039 25.4132 34.7825 27.9538 33.6552C30.4943 32.528 33.2905 31.9644 36.3423 31.9644C38.8518 31.9644 41.191 32.3427 43.3598 33.0993C45.544 33.8405 47.4882 34.8983 49.1922 36.2726C50.9117 37.6315 52.3446 39.2606 53.491 41.1599C54.6373 43.0438 55.4274 45.1362 55.8611 47.437H49.9125Z" fill="white"/>
<path d="M38.3406 0H45.2187L61.3915 39.3764H61.9492L78.1219 0H85V47.437H79.6091V11.396H79.1443L64.2728 47.437H59.0678L44.1963 11.396H43.7315V47.437H38.3406V0Z" fill="white"/>
</svg>
