<svg width="16" height="14" viewBox="0 0 16 14" fill="none" xmlns="http://www.w3.org/2000/svg">
<path d="M13.8048 8.80201C13.728 8.26841 13.316 7.85241 12.7856 7.72841C10.724 7.24521 10.2072 6.05801 10.12 4.74121C9.75439 4.67321 9.10399 4.59961 7.99999 4.59961C6.89599 4.59961 6.24559 4.67321 5.87999 4.74121C5.79279 6.05801 5.27599 7.24521 3.21439 7.72841C2.68399 7.85321 2.27199 8.26841 2.19519 8.80201L1.79759 11.5556C1.65759 12.5252 2.36959 13.3996 3.35999 13.3996H12.64C13.6296 13.3996 14.3424 12.5252 14.2024 11.5556L13.8048 8.80201ZM7.99999 11.3932C6.88399 11.3932 5.97919 10.4972 5.97919 9.39321C5.97919 8.28921 6.88399 7.39321 7.99999 7.39321C9.11599 7.39321 10.0208 8.28921 10.0208 9.39321C10.0208 10.4972 9.11519 11.3932 7.99999 11.3932ZM15.96 3.79961C15.9408 2.59961 12.8864 0.600409 7.99999 0.599609C3.11279 0.600409 0.0583924 2.59961 0.0399924 3.79961C0.0215924 4.99961 0.0567925 6.56121 2.06799 6.30121C4.42079 5.99641 4.27599 5.17481 4.27599 4.00041C4.27599 3.18121 6.18959 2.98361 7.99999 2.98361C9.81039 2.98361 11.7232 3.18121 11.724 4.00041C11.724 5.17481 11.5792 5.99641 13.932 6.30121C15.9424 6.56121 15.9784 4.99961 15.96 3.79961Z" fill="white"/>
</svg>
